<mxfile host="app.diagrams.net" modified="2021-04-18T13:02:40.351Z" agent="5.0 (Windows NT 10.0; Win64; x64) AppleWebKit/537.36 (KHTML, like Gecko) Chrome/90.0.4430.72 Safari/537.36" etag="rG4_Tk3OQYonZz1aJm8D" version="14.6.1" type="github">
  <diagram id="zbbxKpmFPXRotywaH2ZZ" name="Page-1">
    <mxGraphModel dx="1038" dy="548" grid="1" gridSize="10" guides="1" tooltips="1" connect="1" arrows="1" fold="1" page="1" pageScale="1" pageWidth="827" pageHeight="1169" math="0" shadow="0">
      <root>
        <mxCell id="0" />
        <mxCell id="1" parent="0" />
        <mxCell id="l8YqKFYvEB8Otpdug7OU-1" style="edgeStyle=orthogonalEdgeStyle;rounded=0;orthogonalLoop=1;jettySize=auto;html=1;entryX=0.5;entryY=0;entryDx=0;entryDy=0;" edge="1" parent="1" source="l8YqKFYvEB8Otpdug7OU-2" target="l8YqKFYvEB8Otpdug7OU-5">
          <mxGeometry relative="1" as="geometry" />
        </mxCell>
        <mxCell id="l8YqKFYvEB8Otpdug7OU-2" value="" style="ellipse;whiteSpace=wrap;html=1;" vertex="1" parent="1">
          <mxGeometry x="310" y="5" width="120" height="50" as="geometry" />
        </mxCell>
        <mxCell id="l8YqKFYvEB8Otpdug7OU-3" value="Старт" style="text;html=1;strokeColor=none;fillColor=none;align=center;verticalAlign=middle;whiteSpace=wrap;rounded=0;" vertex="1" parent="1">
          <mxGeometry x="335" y="20" width="70" height="20" as="geometry" />
        </mxCell>
        <mxCell id="l8YqKFYvEB8Otpdug7OU-4" style="edgeStyle=orthogonalEdgeStyle;rounded=0;orthogonalLoop=1;jettySize=auto;html=1;strokeWidth=2;fontSize=13;entryX=1;entryY=0.5;entryDx=0;entryDy=0;" edge="1" parent="1" source="l8YqKFYvEB8Otpdug7OU-5" target="l8YqKFYvEB8Otpdug7OU-2">
          <mxGeometry relative="1" as="geometry">
            <mxPoint x="450" y="20" as="targetPoint" />
            <Array as="points">
              <mxPoint x="520" y="100" />
              <mxPoint x="520" y="30" />
            </Array>
          </mxGeometry>
        </mxCell>
        <mxCell id="l8YqKFYvEB8Otpdug7OU-5" value="" style="rhombus;whiteSpace=wrap;html=1;" vertex="1" parent="1">
          <mxGeometry x="320" y="70" width="100" height="60" as="geometry" />
        </mxCell>
        <mxCell id="l8YqKFYvEB8Otpdug7OU-6" style="edgeStyle=orthogonalEdgeStyle;rounded=0;orthogonalLoop=1;jettySize=auto;html=1;entryX=0.5;entryY=0;entryDx=0;entryDy=0;" edge="1" parent="1" target="l8YqKFYvEB8Otpdug7OU-8">
          <mxGeometry relative="1" as="geometry">
            <mxPoint x="370" y="130" as="sourcePoint" />
          </mxGeometry>
        </mxCell>
        <mxCell id="l8YqKFYvEB8Otpdug7OU-7" value="Начало" style="text;html=1;strokeColor=none;fillColor=none;align=center;verticalAlign=middle;whiteSpace=wrap;rounded=0;" vertex="1" parent="1">
          <mxGeometry x="350" y="90" width="40" height="20" as="geometry" />
        </mxCell>
        <mxCell id="l8YqKFYvEB8Otpdug7OU-8" value="" style="rounded=0;whiteSpace=wrap;html=1;" vertex="1" parent="1">
          <mxGeometry x="305" y="150" width="130" height="110" as="geometry" />
        </mxCell>
        <mxCell id="l8YqKFYvEB8Otpdug7OU-9" value="(RgMx) &amp;lt; - &amp;lt;0&amp;gt;&lt;br&gt;(RgMy) &amp;lt; - &amp;lt;0&amp;gt;&lt;br&gt;(RgMz) &amp;lt; - &amp;lt;0&amp;gt;&lt;br&gt;(RgEx) &amp;lt; - &amp;lt;0&amp;gt;&lt;br&gt;(RgEy) &amp;lt; - &amp;lt;0&amp;gt;&lt;br&gt;(RgEz) &amp;lt; - &amp;lt;0&amp;gt;&lt;br&gt;(CT) &amp;lt; -&amp;nbsp; &amp;lt;0&amp;gt;" style="text;html=1;strokeColor=none;fillColor=none;align=center;verticalAlign=middle;whiteSpace=wrap;rounded=0;" vertex="1" parent="1">
          <mxGeometry x="315" y="160" width="105" height="90" as="geometry" />
        </mxCell>
        <mxCell id="l8YqKFYvEB8Otpdug7OU-10" style="edgeStyle=orthogonalEdgeStyle;rounded=0;orthogonalLoop=1;jettySize=auto;html=1;entryX=0.5;entryY=0;entryDx=0;entryDy=0;" edge="1" parent="1" source="l8YqKFYvEB8Otpdug7OU-11" target="l8YqKFYvEB8Otpdug7OU-14">
          <mxGeometry relative="1" as="geometry" />
        </mxCell>
        <mxCell id="l8YqKFYvEB8Otpdug7OU-11" value="" style="rounded=0;whiteSpace=wrap;html=1;" vertex="1" parent="1">
          <mxGeometry x="302.5" y="280" width="140" height="90" as="geometry" />
        </mxCell>
        <mxCell id="l8YqKFYvEB8Otpdug7OU-12" value="(RgMx) &amp;lt; - &amp;lt;X&amp;gt;&lt;br&gt;(RgMy) &amp;lt; - &amp;lt;Y&amp;gt;&lt;br&gt;(RgEx) &amp;lt; - &amp;lt;EX&amp;gt;&lt;br&gt;(RgEy) &amp;lt; - &amp;lt;EY&amp;gt;&lt;br&gt;(CT)&amp;nbsp; &amp;lt; -&amp;nbsp; &amp;lt;10&amp;gt;" style="text;html=1;strokeColor=none;fillColor=none;align=center;verticalAlign=middle;whiteSpace=wrap;rounded=0;" vertex="1" parent="1">
          <mxGeometry x="320" y="280" width="100" height="90" as="geometry" />
        </mxCell>
        <mxCell id="l8YqKFYvEB8Otpdug7OU-13" style="edgeStyle=orthogonalEdgeStyle;rounded=0;orthogonalLoop=1;jettySize=auto;html=1;entryX=0.5;entryY=0;entryDx=0;entryDy=0;strokeWidth=2;fontSize=14;" edge="1" parent="1" source="l8YqKFYvEB8Otpdug7OU-14" target="l8YqKFYvEB8Otpdug7OU-18">
          <mxGeometry relative="1" as="geometry" />
        </mxCell>
        <mxCell id="l8YqKFYvEB8Otpdug7OU-14" value="" style="rounded=0;whiteSpace=wrap;html=1;" vertex="1" parent="1">
          <mxGeometry x="292.5" y="410" width="160" height="50" as="geometry" />
        </mxCell>
        <mxCell id="l8YqKFYvEB8Otpdug7OU-15" value="B &amp;lt; - RgX[9]&amp;nbsp; ^ RgY[9]" style="text;html=1;strokeColor=none;fillColor=none;align=center;verticalAlign=middle;whiteSpace=wrap;rounded=0;" vertex="1" parent="1">
          <mxGeometry x="302.5" y="425" width="140" height="20" as="geometry" />
        </mxCell>
        <mxCell id="l8YqKFYvEB8Otpdug7OU-16" value="Денормализация Mx сдвигая её вправо на 1 разряд добавляя 1 к Ex" style="text;html=1;strokeColor=none;fillColor=none;align=center;verticalAlign=middle;whiteSpace=wrap;rounded=0;fontSize=14;" vertex="1" parent="1">
          <mxGeometry x="530" y="510" width="240" height="20" as="geometry" />
        </mxCell>
        <mxCell id="l8YqKFYvEB8Otpdug7OU-17" style="edgeStyle=orthogonalEdgeStyle;rounded=0;orthogonalLoop=1;jettySize=auto;html=1;entryX=0.5;entryY=0;entryDx=0;entryDy=0;strokeWidth=2;fontSize=14;" edge="1" parent="1" source="l8YqKFYvEB8Otpdug7OU-18" target="l8YqKFYvEB8Otpdug7OU-23">
          <mxGeometry relative="1" as="geometry" />
        </mxCell>
        <mxCell id="l8YqKFYvEB8Otpdug7OU-18" value="" style="rounded=0;whiteSpace=wrap;html=1;fontSize=12;" vertex="1" parent="1">
          <mxGeometry x="297.5" y="490" width="150" height="60" as="geometry" />
        </mxCell>
        <mxCell id="l8YqKFYvEB8Otpdug7OU-19" value="&lt;font style=&quot;font-size: 14px&quot;&gt;^ -XOR&amp;nbsp;&lt;br&gt;Определяем знак искомого значения&lt;/font&gt;" style="text;html=1;strokeColor=none;fillColor=none;align=center;verticalAlign=middle;whiteSpace=wrap;rounded=0;" vertex="1" parent="1">
          <mxGeometry x="510" y="405" width="270" height="40" as="geometry" />
        </mxCell>
        <mxCell id="l8YqKFYvEB8Otpdug7OU-20" value="(RgMx) &amp;lt;- (RgMx) * 2&lt;sup&gt;-1&lt;/sup&gt;&lt;br style=&quot;font-size: 12px&quot;&gt;(RgEx) &amp;lt;- (RgEx) + 1" style="text;html=1;strokeColor=none;fillColor=none;align=center;verticalAlign=middle;whiteSpace=wrap;rounded=0;fontSize=12;" vertex="1" parent="1">
          <mxGeometry x="307.5" y="505" width="130" height="30" as="geometry" />
        </mxCell>
        <mxCell id="l8YqKFYvEB8Otpdug7OU-21" style="edgeStyle=orthogonalEdgeStyle;rounded=0;orthogonalLoop=1;jettySize=auto;html=1;entryX=0.5;entryY=0;entryDx=0;entryDy=0;strokeWidth=2;fontSize=14;exitX=0.5;exitY=1;exitDx=0;exitDy=0;" edge="1" parent="1" source="l8YqKFYvEB8Otpdug7OU-102" target="l8YqKFYvEB8Otpdug7OU-28">
          <mxGeometry relative="1" as="geometry">
            <mxPoint x="353" y="880" as="sourcePoint" />
          </mxGeometry>
        </mxCell>
        <mxCell id="l8YqKFYvEB8Otpdug7OU-22" style="edgeStyle=orthogonalEdgeStyle;rounded=0;orthogonalLoop=1;jettySize=auto;html=1;entryX=0.5;entryY=0;entryDx=0;entryDy=0;" edge="1" parent="1" source="l8YqKFYvEB8Otpdug7OU-23" target="l8YqKFYvEB8Otpdug7OU-99">
          <mxGeometry relative="1" as="geometry" />
        </mxCell>
        <mxCell id="l8YqKFYvEB8Otpdug7OU-23" value="" style="rounded=0;whiteSpace=wrap;html=1;fontSize=12;" vertex="1" parent="1">
          <mxGeometry x="260" y="605" width="225" height="60" as="geometry" />
        </mxCell>
        <mxCell id="l8YqKFYvEB8Otpdug7OU-24" value="(RgEz) &amp;lt; - (RgEx) - (RgEy)" style="text;html=1;strokeColor=none;fillColor=none;align=center;verticalAlign=middle;whiteSpace=wrap;rounded=0;fontSize=12;" vertex="1" parent="1">
          <mxGeometry x="272.5" y="615" width="207.5" height="40" as="geometry" />
        </mxCell>
        <mxCell id="l8YqKFYvEB8Otpdug7OU-25" value="Записываем модули Mx и My" style="text;html=1;strokeColor=none;fillColor=none;align=center;verticalAlign=middle;whiteSpace=wrap;rounded=0;fontSize=14;" vertex="1" parent="1">
          <mxGeometry x="610" y="980" width="140" height="70" as="geometry" />
        </mxCell>
        <mxCell id="l8YqKFYvEB8Otpdug7OU-26" style="edgeStyle=orthogonalEdgeStyle;rounded=0;orthogonalLoop=1;jettySize=auto;html=1;exitX=1;exitY=0.5;exitDx=0;exitDy=0;entryX=0.5;entryY=0;entryDx=0;entryDy=0;strokeWidth=2;fontSize=14;" edge="1" parent="1" source="l8YqKFYvEB8Otpdug7OU-28" target="l8YqKFYvEB8Otpdug7OU-34">
          <mxGeometry relative="1" as="geometry" />
        </mxCell>
        <mxCell id="l8YqKFYvEB8Otpdug7OU-27" style="edgeStyle=orthogonalEdgeStyle;rounded=0;orthogonalLoop=1;jettySize=auto;html=1;entryX=0.5;entryY=0;entryDx=0;entryDy=0;strokeWidth=2;fontSize=14;" edge="1" parent="1" source="l8YqKFYvEB8Otpdug7OU-28" target="l8YqKFYvEB8Otpdug7OU-37">
          <mxGeometry relative="1" as="geometry" />
        </mxCell>
        <mxCell id="l8YqKFYvEB8Otpdug7OU-28" value="" style="rhombus;whiteSpace=wrap;html=1;fontSize=14;" vertex="1" parent="1">
          <mxGeometry x="245" y="980" width="145" height="70" as="geometry" />
        </mxCell>
        <mxCell id="l8YqKFYvEB8Otpdug7OU-29" value="(RgMx[9]) = 1" style="text;html=1;strokeColor=none;fillColor=none;align=center;verticalAlign=middle;whiteSpace=wrap;rounded=0;fontSize=14;" vertex="1" parent="1">
          <mxGeometry x="272.5" y="997.5" width="90" height="35" as="geometry" />
        </mxCell>
        <mxCell id="l8YqKFYvEB8Otpdug7OU-30" value="Нет" style="text;html=1;strokeColor=none;fillColor=none;align=center;verticalAlign=middle;whiteSpace=wrap;rounded=0;fontSize=14;" vertex="1" parent="1">
          <mxGeometry x="259" y="1060" width="40" height="20" as="geometry" />
        </mxCell>
        <mxCell id="l8YqKFYvEB8Otpdug7OU-31" value="Да" style="text;html=1;strokeColor=none;fillColor=none;align=center;verticalAlign=middle;whiteSpace=wrap;rounded=0;fontSize=14;" vertex="1" parent="1">
          <mxGeometry x="415" y="990" width="40" height="20" as="geometry" />
        </mxCell>
        <mxCell id="l8YqKFYvEB8Otpdug7OU-32" style="edgeStyle=orthogonalEdgeStyle;rounded=0;orthogonalLoop=1;jettySize=auto;html=1;strokeWidth=2;fontSize=14;" edge="1" parent="1" source="l8YqKFYvEB8Otpdug7OU-33">
          <mxGeometry relative="1" as="geometry">
            <mxPoint x="380" y="920" as="targetPoint" />
            <Array as="points">
              <mxPoint x="600" y="1090" />
              <mxPoint x="600" y="920" />
            </Array>
          </mxGeometry>
        </mxCell>
        <mxCell id="l8YqKFYvEB8Otpdug7OU-33" value="" style="rounded=0;whiteSpace=wrap;html=1;fontSize=14;" vertex="1" parent="1">
          <mxGeometry x="405" y="1070" width="170" height="40" as="geometry" />
        </mxCell>
        <mxCell id="l8YqKFYvEB8Otpdug7OU-34" value="(RgMx) &amp;lt;- n(RgMx) +1" style="text;html=1;strokeColor=none;fillColor=none;align=center;verticalAlign=middle;whiteSpace=wrap;rounded=0;fontSize=14;" vertex="1" parent="1">
          <mxGeometry x="415" y="1070" width="150" height="40" as="geometry" />
        </mxCell>
        <mxCell id="l8YqKFYvEB8Otpdug7OU-35" style="edgeStyle=orthogonalEdgeStyle;rounded=0;orthogonalLoop=1;jettySize=auto;html=1;entryX=0.5;entryY=0;entryDx=0;entryDy=0;strokeWidth=2;fontSize=14;" edge="1" parent="1" source="l8YqKFYvEB8Otpdug7OU-37" target="l8YqKFYvEB8Otpdug7OU-41">
          <mxGeometry relative="1" as="geometry" />
        </mxCell>
        <mxCell id="l8YqKFYvEB8Otpdug7OU-36" style="edgeStyle=orthogonalEdgeStyle;rounded=0;orthogonalLoop=1;jettySize=auto;html=1;entryX=0.5;entryY=0;entryDx=0;entryDy=0;strokeWidth=2;fontSize=14;" edge="1" parent="1" source="l8YqKFYvEB8Otpdug7OU-37" target="l8YqKFYvEB8Otpdug7OU-54">
          <mxGeometry relative="1" as="geometry" />
        </mxCell>
        <mxCell id="l8YqKFYvEB8Otpdug7OU-37" value="" style="rhombus;whiteSpace=wrap;html=1;fontSize=14;" vertex="1" parent="1">
          <mxGeometry x="236.25" y="1160" width="160" height="60" as="geometry" />
        </mxCell>
        <mxCell id="l8YqKFYvEB8Otpdug7OU-38" value="(RgMy[9]) = 1" style="text;html=1;strokeColor=none;fillColor=none;align=center;verticalAlign=middle;whiteSpace=wrap;rounded=0;fontSize=14;" vertex="1" parent="1">
          <mxGeometry x="270" y="1172.5" width="97.5" height="35" as="geometry" />
        </mxCell>
        <mxCell id="l8YqKFYvEB8Otpdug7OU-39" style="edgeStyle=orthogonalEdgeStyle;rounded=0;orthogonalLoop=1;jettySize=auto;html=1;strokeWidth=2;fontSize=14;" edge="1" parent="1" source="l8YqKFYvEB8Otpdug7OU-40">
          <mxGeometry relative="1" as="geometry">
            <mxPoint x="320" y="1130" as="targetPoint" />
            <Array as="points">
              <mxPoint x="640" y="1280" />
              <mxPoint x="640" y="1130" />
            </Array>
          </mxGeometry>
        </mxCell>
        <mxCell id="l8YqKFYvEB8Otpdug7OU-40" value="" style="rounded=0;whiteSpace=wrap;html=1;fontSize=14;" vertex="1" parent="1">
          <mxGeometry x="416.25" y="1260" width="162.5" height="40" as="geometry" />
        </mxCell>
        <mxCell id="l8YqKFYvEB8Otpdug7OU-41" value="(RgMy) &amp;lt;- n(RgMy) +1" style="text;html=1;strokeColor=none;fillColor=none;align=center;verticalAlign=middle;whiteSpace=wrap;rounded=0;fontSize=14;" vertex="1" parent="1">
          <mxGeometry x="426.25" y="1260" width="142.5" height="40" as="geometry" />
        </mxCell>
        <mxCell id="l8YqKFYvEB8Otpdug7OU-42" value="Сравниваем перемещенный бит&amp;nbsp; &amp;nbsp;" style="text;html=1;strokeColor=none;fillColor=none;align=center;verticalAlign=middle;whiteSpace=wrap;rounded=0;fontSize=14;" vertex="1" parent="1">
          <mxGeometry x="573.75" y="1320" width="152.5" height="60" as="geometry" />
        </mxCell>
        <mxCell id="l8YqKFYvEB8Otpdug7OU-43" value="" style="rounded=0;whiteSpace=wrap;html=1;fontSize=19;" vertex="1" parent="1">
          <mxGeometry x="116.25" y="1410" width="202.5" height="50" as="geometry" />
        </mxCell>
        <mxCell id="l8YqKFYvEB8Otpdug7OU-44" style="edgeStyle=orthogonalEdgeStyle;rounded=0;orthogonalLoop=1;jettySize=auto;html=1;entryX=0;entryY=0.5;entryDx=0;entryDy=0;strokeWidth=2;" edge="1" parent="1" source="l8YqKFYvEB8Otpdug7OU-45" target="l8YqKFYvEB8Otpdug7OU-104">
          <mxGeometry relative="1" as="geometry" />
        </mxCell>
        <mxCell id="l8YqKFYvEB8Otpdug7OU-45" value="(RgMx) &amp;lt;- (RgMx) - (RgMy)&lt;br&gt;(RgMz[0]) &amp;lt;- n(RgMx[9])&amp;nbsp;" style="text;html=1;strokeColor=none;fillColor=none;align=center;verticalAlign=middle;whiteSpace=wrap;rounded=0;fontSize=13;" vertex="1" parent="1">
          <mxGeometry x="120" y="1410" width="195" height="50" as="geometry" />
        </mxCell>
        <mxCell id="l8YqKFYvEB8Otpdug7OU-46" style="edgeStyle=orthogonalEdgeStyle;rounded=0;orthogonalLoop=1;jettySize=auto;html=1;entryX=0.5;entryY=0;entryDx=0;entryDy=0;strokeWidth=2;fontSize=14;" edge="1" parent="1" source="l8YqKFYvEB8Otpdug7OU-47" target="l8YqKFYvEB8Otpdug7OU-61">
          <mxGeometry relative="1" as="geometry" />
        </mxCell>
        <mxCell id="l8YqKFYvEB8Otpdug7OU-47" value="" style="rhombus;whiteSpace=wrap;html=1;fontSize=13;" vertex="1" parent="1">
          <mxGeometry x="320" y="1560" width="110" height="70" as="geometry" />
        </mxCell>
        <mxCell id="l8YqKFYvEB8Otpdug7OU-48" style="edgeStyle=orthogonalEdgeStyle;rounded=0;orthogonalLoop=1;jettySize=auto;html=1;entryX=0.5;entryY=1;entryDx=0;entryDy=0;strokeWidth=2;exitX=0.5;exitY=0;exitDx=0;exitDy=0;" edge="1" parent="1" source="l8YqKFYvEB8Otpdug7OU-47" target="l8YqKFYvEB8Otpdug7OU-54">
          <mxGeometry relative="1" as="geometry">
            <Array as="points">
              <mxPoint x="375" y="1490" />
              <mxPoint x="370" y="1490" />
            </Array>
          </mxGeometry>
        </mxCell>
        <mxCell id="l8YqKFYvEB8Otpdug7OU-49" value="(CT) =0" style="text;html=1;strokeColor=none;fillColor=none;align=center;verticalAlign=middle;whiteSpace=wrap;rounded=0;fontSize=13;rotation=0;" vertex="1" parent="1">
          <mxGeometry x="333.75" y="1580" width="82.5" height="20" as="geometry" />
        </mxCell>
        <mxCell id="l8YqKFYvEB8Otpdug7OU-50" value="Да" style="text;html=1;strokeColor=none;fillColor=none;align=center;verticalAlign=middle;whiteSpace=wrap;rounded=0;fontSize=13;" vertex="1" parent="1">
          <mxGeometry x="196.25" y="1340" width="40" height="20" as="geometry" />
        </mxCell>
        <mxCell id="l8YqKFYvEB8Otpdug7OU-51" value="Да" style="text;html=1;strokeColor=none;fillColor=none;align=center;verticalAlign=middle;whiteSpace=wrap;rounded=0;fontSize=14;" vertex="1" parent="1">
          <mxGeometry x="498.75" y="1200" width="40" height="20" as="geometry" />
        </mxCell>
        <mxCell id="l8YqKFYvEB8Otpdug7OU-52" style="edgeStyle=orthogonalEdgeStyle;rounded=0;orthogonalLoop=1;jettySize=auto;html=1;strokeWidth=2;fontSize=14;" edge="1" parent="1" source="l8YqKFYvEB8Otpdug7OU-54">
          <mxGeometry relative="1" as="geometry">
            <mxPoint x="539" y="1400" as="targetPoint" />
            <Array as="points">
              <mxPoint x="539" y="1370" />
            </Array>
          </mxGeometry>
        </mxCell>
        <mxCell id="l8YqKFYvEB8Otpdug7OU-53" style="edgeStyle=orthogonalEdgeStyle;rounded=0;orthogonalLoop=1;jettySize=auto;html=1;strokeWidth=2;fontSize=14;" edge="1" parent="1" source="l8YqKFYvEB8Otpdug7OU-54">
          <mxGeometry relative="1" as="geometry">
            <mxPoint x="220" y="1400" as="targetPoint" />
            <Array as="points">
              <mxPoint x="220" y="1370" />
            </Array>
          </mxGeometry>
        </mxCell>
        <mxCell id="l8YqKFYvEB8Otpdug7OU-54" value="" style="rhombus;whiteSpace=wrap;html=1;fontSize=14;" vertex="1" parent="1">
          <mxGeometry x="285" y="1340" width="170" height="60" as="geometry" />
        </mxCell>
        <mxCell id="l8YqKFYvEB8Otpdug7OU-55" value="(RgMz[1]) = 0" style="text;html=1;strokeColor=none;fillColor=none;align=center;verticalAlign=middle;whiteSpace=wrap;rounded=0;fontSize=14;" vertex="1" parent="1">
          <mxGeometry x="307.5" y="1360" width="127.5" height="20" as="geometry" />
        </mxCell>
        <mxCell id="l8YqKFYvEB8Otpdug7OU-56" style="edgeStyle=orthogonalEdgeStyle;rounded=0;orthogonalLoop=1;jettySize=auto;html=1;entryX=0.5;entryY=0;entryDx=0;entryDy=0;strokeWidth=2;" edge="1" parent="1" source="l8YqKFYvEB8Otpdug7OU-57" target="l8YqKFYvEB8Otpdug7OU-104">
          <mxGeometry relative="1" as="geometry" />
        </mxCell>
        <mxCell id="l8YqKFYvEB8Otpdug7OU-57" value="" style="rounded=0;whiteSpace=wrap;html=1;fontSize=19;" vertex="1" parent="1">
          <mxGeometry x="456.25" y="1400" width="175" height="50" as="geometry" />
        </mxCell>
        <mxCell id="l8YqKFYvEB8Otpdug7OU-58" value="(RgMx) &amp;lt;- (RgMx) + (RgMy)&lt;br&gt;(RgMz[0]) &amp;lt;-&amp;nbsp; n(RgMx[9])&amp;nbsp;" style="text;html=1;strokeColor=none;fillColor=none;align=center;verticalAlign=middle;whiteSpace=wrap;rounded=0;fontSize=13;" vertex="1" parent="1">
          <mxGeometry x="462.5" y="1410" width="173.75" height="30" as="geometry" />
        </mxCell>
        <mxCell id="l8YqKFYvEB8Otpdug7OU-59" style="edgeStyle=orthogonalEdgeStyle;rounded=0;orthogonalLoop=1;jettySize=auto;html=1;strokeWidth=2;fontSize=14;" edge="1" parent="1" source="l8YqKFYvEB8Otpdug7OU-61">
          <mxGeometry relative="1" as="geometry">
            <mxPoint x="530" y="1790" as="targetPoint" />
          </mxGeometry>
        </mxCell>
        <mxCell id="l8YqKFYvEB8Otpdug7OU-60" style="edgeStyle=orthogonalEdgeStyle;rounded=0;orthogonalLoop=1;jettySize=auto;html=1;entryX=0.5;entryY=0;entryDx=0;entryDy=0;strokeWidth=2;fontSize=14;exitX=0.5;exitY=1;exitDx=0;exitDy=0;" edge="1" parent="1" source="l8YqKFYvEB8Otpdug7OU-61" target="l8YqKFYvEB8Otpdug7OU-67">
          <mxGeometry relative="1" as="geometry">
            <mxPoint x="371" y="1800" as="sourcePoint" />
          </mxGeometry>
        </mxCell>
        <mxCell id="l8YqKFYvEB8Otpdug7OU-61" value="" style="rhombus;whiteSpace=wrap;html=1;fontSize=13;" vertex="1" parent="1">
          <mxGeometry x="290" y="1690" width="170" height="70" as="geometry" />
        </mxCell>
        <mxCell id="l8YqKFYvEB8Otpdug7OU-62" value="(RgMz[9]) ^ B =1" style="text;html=1;strokeColor=none;fillColor=none;align=center;verticalAlign=middle;whiteSpace=wrap;rounded=0;fontSize=13;" vertex="1" parent="1">
          <mxGeometry x="312.5" y="1712.5" width="120" height="25" as="geometry" />
        </mxCell>
        <mxCell id="l8YqKFYvEB8Otpdug7OU-63" value="" style="rounded=0;whiteSpace=wrap;html=1;fontSize=13;" vertex="1" parent="1">
          <mxGeometry x="453.13" y="1790" width="160" height="60" as="geometry" />
        </mxCell>
        <mxCell id="l8YqKFYvEB8Otpdug7OU-64" style="edgeStyle=orthogonalEdgeStyle;rounded=0;orthogonalLoop=1;jettySize=auto;html=1;strokeWidth=2;fontSize=14;" edge="1" parent="1" source="l8YqKFYvEB8Otpdug7OU-65">
          <mxGeometry relative="1" as="geometry">
            <mxPoint x="380" y="1820" as="targetPoint" />
          </mxGeometry>
        </mxCell>
        <mxCell id="l8YqKFYvEB8Otpdug7OU-65" value="(RgMz) &amp;lt;- n(RgMz) +1" style="text;html=1;strokeColor=none;fillColor=none;align=center;verticalAlign=middle;whiteSpace=wrap;rounded=0;fontSize=13;" vertex="1" parent="1">
          <mxGeometry x="451.88" y="1800" width="157.5" height="40" as="geometry" />
        </mxCell>
        <mxCell id="l8YqKFYvEB8Otpdug7OU-66" style="edgeStyle=orthogonalEdgeStyle;rounded=0;orthogonalLoop=1;jettySize=auto;html=1;strokeWidth=2;fontSize=14;" edge="1" parent="1" source="l8YqKFYvEB8Otpdug7OU-67">
          <mxGeometry relative="1" as="geometry">
            <mxPoint x="268" y="2270" as="targetPoint" />
          </mxGeometry>
        </mxCell>
        <mxCell id="l8YqKFYvEB8Otpdug7OU-67" value="" style="rhombus;whiteSpace=wrap;html=1;fontSize=13;" vertex="1" parent="1">
          <mxGeometry x="182.5" y="1960" width="170" height="80" as="geometry" />
        </mxCell>
        <mxCell id="l8YqKFYvEB8Otpdug7OU-68" style="edgeStyle=orthogonalEdgeStyle;rounded=0;orthogonalLoop=1;jettySize=auto;html=1;entryX=0;entryY=0.75;entryDx=0;entryDy=0;strokeWidth=2;fontSize=14;" edge="1" parent="1" source="l8YqKFYvEB8Otpdug7OU-69" target="l8YqKFYvEB8Otpdug7OU-70">
          <mxGeometry relative="1" as="geometry" />
        </mxCell>
        <mxCell id="l8YqKFYvEB8Otpdug7OU-69" value="(RgMz[9]) ^ RgMz[8] = 1" style="text;html=1;strokeColor=none;fillColor=none;align=center;verticalAlign=middle;whiteSpace=wrap;rounded=0;fontSize=13;" vertex="1" parent="1">
          <mxGeometry x="188.13" y="1975" width="160" height="50" as="geometry" />
        </mxCell>
        <mxCell id="l8YqKFYvEB8Otpdug7OU-70" value="" style="rounded=0;whiteSpace=wrap;html=1;fontSize=13;" vertex="1" parent="1">
          <mxGeometry x="571.25" y="1965" width="150" height="60" as="geometry" />
        </mxCell>
        <mxCell id="l8YqKFYvEB8Otpdug7OU-71" style="edgeStyle=orthogonalEdgeStyle;rounded=0;orthogonalLoop=1;jettySize=auto;html=1;entryX=0.5;entryY=0;entryDx=0;entryDy=0;strokeWidth=2;fontSize=14;" edge="1" parent="1" source="l8YqKFYvEB8Otpdug7OU-72" target="l8YqKFYvEB8Otpdug7OU-111">
          <mxGeometry relative="1" as="geometry" />
        </mxCell>
        <mxCell id="l8YqKFYvEB8Otpdug7OU-72" value="(RgMz) &amp;lt;- (RgMz) *2&lt;br&gt;(RgEz) &amp;lt;- (RgEz)-1" style="text;html=1;strokeColor=none;fillColor=none;align=center;verticalAlign=middle;whiteSpace=wrap;rounded=0;fontSize=13;" vertex="1" parent="1">
          <mxGeometry x="580" y="1970" width="130" height="50" as="geometry" />
        </mxCell>
        <mxCell id="l8YqKFYvEB8Otpdug7OU-73" style="edgeStyle=orthogonalEdgeStyle;rounded=0;orthogonalLoop=1;jettySize=auto;html=1;entryX=0.5;entryY=0;entryDx=0;entryDy=0;strokeWidth=2;fontSize=14;" edge="1" parent="1" source="l8YqKFYvEB8Otpdug7OU-74" target="l8YqKFYvEB8Otpdug7OU-76">
          <mxGeometry relative="1" as="geometry">
            <Array as="points">
              <mxPoint x="268" y="2350" />
            </Array>
          </mxGeometry>
        </mxCell>
        <mxCell id="l8YqKFYvEB8Otpdug7OU-74" value="" style="rounded=0;whiteSpace=wrap;html=1;fontSize=13;" vertex="1" parent="1">
          <mxGeometry x="206.25" y="2270" width="120" height="60" as="geometry" />
        </mxCell>
        <mxCell id="l8YqKFYvEB8Otpdug7OU-75" value="MD &amp;lt;- (RgMz)&lt;br&gt;MD &amp;lt;- (RgEz)" style="text;html=1;strokeColor=none;fillColor=none;align=center;verticalAlign=middle;whiteSpace=wrap;rounded=0;fontSize=13;" vertex="1" parent="1">
          <mxGeometry x="210" y="2285" width="110" height="30" as="geometry" />
        </mxCell>
        <mxCell id="l8YqKFYvEB8Otpdug7OU-76" value="" style="ellipse;whiteSpace=wrap;html=1;fontSize=13;" vertex="1" parent="1">
          <mxGeometry x="207.5" y="2370" width="120" height="80" as="geometry" />
        </mxCell>
        <mxCell id="l8YqKFYvEB8Otpdug7OU-77" value="Стоп" style="text;html=1;strokeColor=none;fillColor=none;align=center;verticalAlign=middle;whiteSpace=wrap;rounded=0;fontSize=13;" vertex="1" parent="1">
          <mxGeometry x="228.75" y="2400" width="70" height="20" as="geometry" />
        </mxCell>
        <mxCell id="l8YqKFYvEB8Otpdug7OU-78" value="Да" style="text;html=1;strokeColor=none;fillColor=none;align=center;verticalAlign=middle;whiteSpace=wrap;rounded=0;fontSize=13;" vertex="1" parent="1">
          <mxGeometry x="380" y="120" width="40" height="20" as="geometry" />
        </mxCell>
        <mxCell id="l8YqKFYvEB8Otpdug7OU-79" value="Нет" style="text;html=1;strokeColor=none;fillColor=none;align=center;verticalAlign=middle;whiteSpace=wrap;rounded=0;fontSize=13;" vertex="1" parent="1">
          <mxGeometry x="447.5" y="80" width="40" height="20" as="geometry" />
        </mxCell>
        <mxCell id="l8YqKFYvEB8Otpdug7OU-80" value="Начало работы программы" style="text;html=1;strokeColor=none;fillColor=none;align=center;verticalAlign=middle;whiteSpace=wrap;rounded=0;fontSize=15;" vertex="1" parent="1">
          <mxGeometry x="532.5" y="20" width="230" height="70" as="geometry" />
        </mxCell>
        <mxCell id="l8YqKFYvEB8Otpdug7OU-81" value="Обнуляем используемые регистры" style="text;html=1;strokeColor=none;fillColor=none;align=center;verticalAlign=middle;whiteSpace=wrap;rounded=0;fontSize=14;" vertex="1" parent="1">
          <mxGeometry x="532.5" y="180" width="180" height="20" as="geometry" />
        </mxCell>
        <mxCell id="l8YqKFYvEB8Otpdug7OU-82" value="Заносим значения в регистры" style="text;html=1;strokeColor=none;fillColor=none;align=center;verticalAlign=middle;whiteSpace=wrap;rounded=0;fontSize=14;" vertex="1" parent="1">
          <mxGeometry x="520" y="290" width="205" height="20" as="geometry" />
        </mxCell>
        <mxCell id="l8YqKFYvEB8Otpdug7OU-83" value="Находим Ez&amp;nbsp;" style="text;html=1;strokeColor=none;fillColor=none;align=center;verticalAlign=middle;whiteSpace=wrap;rounded=0;fontSize=14;" vertex="1" parent="1">
          <mxGeometry x="520" y="625" width="240" height="20" as="geometry" />
        </mxCell>
        <mxCell id="l8YqKFYvEB8Otpdug7OU-84" value="Нет" style="text;html=1;strokeColor=none;fillColor=none;align=center;verticalAlign=middle;whiteSpace=wrap;rounded=0;fontSize=14;" vertex="1" parent="1">
          <mxGeometry x="252.5" y="1240" width="40" height="20" as="geometry" />
        </mxCell>
        <mxCell id="l8YqKFYvEB8Otpdug7OU-85" value="Нет" style="text;html=1;strokeColor=none;fillColor=none;align=center;verticalAlign=middle;whiteSpace=wrap;rounded=0;fontSize=14;" vertex="1" parent="1">
          <mxGeometry x="500" y="1340" width="40" height="20" as="geometry" />
        </mxCell>
        <mxCell id="l8YqKFYvEB8Otpdug7OU-86" value="Если перемещенный бит =1, то восстанавливаем остаток взяв |My|" style="text;html=1;strokeColor=none;fillColor=none;align=center;verticalAlign=middle;whiteSpace=wrap;rounded=0;fontSize=14;" vertex="1" parent="1">
          <mxGeometry x="660" y="1415" width="152.5" height="60" as="geometry" />
        </mxCell>
        <mxCell id="l8YqKFYvEB8Otpdug7OU-87" value="Если перемещенный бит =0, то восстанавливаем остаток&amp;nbsp; инвертировав и +1 к|My|" style="text;html=1;strokeColor=none;fillColor=none;align=center;verticalAlign=middle;whiteSpace=wrap;rounded=0;fontSize=14;" vertex="1" parent="1">
          <mxGeometry x="30" y="1480" width="152.5" height="100" as="geometry" />
        </mxCell>
        <mxCell id="l8YqKFYvEB8Otpdug7OU-88" value="Пользуемся счетчиком до 9 для того чтобы высчитать все 10 бит (0-8 значение, и 9 бит для знака)" style="text;html=1;strokeColor=none;fillColor=none;align=center;verticalAlign=middle;whiteSpace=wrap;rounded=0;fontSize=14;" vertex="1" parent="1">
          <mxGeometry x="116.25" y="1590" width="197.5" height="60" as="geometry" />
        </mxCell>
        <mxCell id="l8YqKFYvEB8Otpdug7OU-89" value="Да" style="text;html=1;strokeColor=none;fillColor=none;align=center;verticalAlign=middle;whiteSpace=wrap;rounded=0;fontSize=13;" vertex="1" parent="1">
          <mxGeometry x="270" y="1540" width="40" height="20" as="geometry" />
        </mxCell>
        <mxCell id="l8YqKFYvEB8Otpdug7OU-90" value="Да" style="text;html=1;strokeColor=none;fillColor=none;align=center;verticalAlign=middle;whiteSpace=wrap;rounded=0;fontSize=13;" vertex="1" parent="1">
          <mxGeometry x="323.75" y="1650" width="40" height="20" as="geometry" />
        </mxCell>
        <mxCell id="l8YqKFYvEB8Otpdug7OU-91" value="Если знак, помещенный в &lt;b&gt;B&lt;/b&gt; и полученный 9 бит Mz не совпадают, инвертируем Mz + 1" style="text;html=1;strokeColor=none;fillColor=none;align=center;verticalAlign=middle;whiteSpace=wrap;rounded=0;fontSize=14;" vertex="1" parent="1">
          <mxGeometry x="60" y="1700" width="217.5" height="50" as="geometry" />
        </mxCell>
        <mxCell id="l8YqKFYvEB8Otpdug7OU-92" value="Нет" style="text;html=1;strokeColor=none;fillColor=none;align=center;verticalAlign=middle;whiteSpace=wrap;rounded=0;fontSize=13;" vertex="1" parent="1">
          <mxGeometry x="320" y="1790" width="40" height="20" as="geometry" />
        </mxCell>
        <mxCell id="l8YqKFYvEB8Otpdug7OU-93" value="Да" style="text;html=1;strokeColor=none;fillColor=none;align=center;verticalAlign=middle;whiteSpace=wrap;rounded=0;fontSize=13;" vertex="1" parent="1">
          <mxGeometry x="490" y="1692.5" width="40" height="20" as="geometry" />
        </mxCell>
        <mxCell id="l8YqKFYvEB8Otpdug7OU-94" value="Да" style="text;html=1;strokeColor=none;fillColor=none;align=center;verticalAlign=middle;whiteSpace=wrap;rounded=0;fontSize=13;" vertex="1" parent="1">
          <mxGeometry x="462.5" y="1975" width="40" height="20" as="geometry" />
        </mxCell>
        <mxCell id="l8YqKFYvEB8Otpdug7OU-95" value="Нет" style="text;html=1;strokeColor=none;fillColor=none;align=center;verticalAlign=middle;whiteSpace=wrap;rounded=0;fontSize=13;" vertex="1" parent="1">
          <mxGeometry x="205" y="2055" width="40" height="20" as="geometry" />
        </mxCell>
        <mxCell id="l8YqKFYvEB8Otpdug7OU-96" value="Денормализация Mz, проверяем совпадают ли 8 и 9 бит, и в случае если да - переносим бит не забывая про Ez" style="text;html=1;strokeColor=none;fillColor=none;align=center;verticalAlign=middle;whiteSpace=wrap;rounded=0;fontSize=14;" vertex="1" parent="1">
          <mxGeometry x="47.5" y="1810" width="205" height="80" as="geometry" />
        </mxCell>
        <mxCell id="l8YqKFYvEB8Otpdug7OU-97" style="edgeStyle=orthogonalEdgeStyle;rounded=0;orthogonalLoop=1;jettySize=auto;html=1;entryX=0.5;entryY=0;entryDx=0;entryDy=0;" edge="1" parent="1" source="l8YqKFYvEB8Otpdug7OU-99" target="l8YqKFYvEB8Otpdug7OU-102">
          <mxGeometry relative="1" as="geometry" />
        </mxCell>
        <mxCell id="l8YqKFYvEB8Otpdug7OU-98" style="edgeStyle=orthogonalEdgeStyle;rounded=0;orthogonalLoop=1;jettySize=auto;html=1;strokeWidth=2;" edge="1" parent="1" source="l8YqKFYvEB8Otpdug7OU-99">
          <mxGeometry relative="1" as="geometry">
            <mxPoint x="40" y="850" as="targetPoint" />
          </mxGeometry>
        </mxCell>
        <mxCell id="l8YqKFYvEB8Otpdug7OU-99" value="" style="rhombus;whiteSpace=wrap;html=1;" vertex="1" parent="1">
          <mxGeometry x="325" y="710" width="105" height="60" as="geometry" />
        </mxCell>
        <mxCell id="l8YqKFYvEB8Otpdug7OU-100" value="(RgMx) = 0" style="text;html=1;strokeColor=none;fillColor=none;align=center;verticalAlign=middle;whiteSpace=wrap;rounded=0;" vertex="1" parent="1">
          <mxGeometry x="333.75" y="730" width="80" height="20" as="geometry" />
        </mxCell>
        <mxCell id="l8YqKFYvEB8Otpdug7OU-101" style="edgeStyle=orthogonalEdgeStyle;rounded=0;orthogonalLoop=1;jettySize=auto;html=1;strokeWidth=2;entryX=0;entryY=0.5;entryDx=0;entryDy=0;" edge="1" parent="1" source="l8YqKFYvEB8Otpdug7OU-102" target="l8YqKFYvEB8Otpdug7OU-121">
          <mxGeometry relative="1" as="geometry">
            <mxPoint x="160" y="2340" as="targetPoint" />
            <Array as="points">
              <mxPoint x="10" y="850" />
              <mxPoint x="10" y="2230" />
              <mxPoint x="160" y="2230" />
              <mxPoint x="160" y="2240" />
            </Array>
          </mxGeometry>
        </mxCell>
        <mxCell id="l8YqKFYvEB8Otpdug7OU-102" value="" style="rhombus;whiteSpace=wrap;html=1;" vertex="1" parent="1">
          <mxGeometry x="327.5" y="820" width="105" height="60" as="geometry" />
        </mxCell>
        <mxCell id="l8YqKFYvEB8Otpdug7OU-103" value="(RgMy) = 0" style="text;html=1;strokeColor=none;fillColor=none;align=center;verticalAlign=middle;whiteSpace=wrap;rounded=0;" vertex="1" parent="1">
          <mxGeometry x="336.25" y="840" width="80" height="20" as="geometry" />
        </mxCell>
        <mxCell id="l8YqKFYvEB8Otpdug7OU-104" value="" style="rounded=0;whiteSpace=wrap;html=1;" vertex="1" parent="1">
          <mxGeometry x="447.5" y="1500" width="170" height="50" as="geometry" />
        </mxCell>
        <mxCell id="l8YqKFYvEB8Otpdug7OU-105" style="edgeStyle=orthogonalEdgeStyle;rounded=0;orthogonalLoop=1;jettySize=auto;html=1;strokeWidth=2;entryX=1;entryY=0.5;entryDx=0;entryDy=0;" edge="1" parent="1" source="l8YqKFYvEB8Otpdug7OU-106" target="l8YqKFYvEB8Otpdug7OU-47">
          <mxGeometry relative="1" as="geometry">
            <mxPoint x="450" y="1600" as="targetPoint" />
            <Array as="points">
              <mxPoint x="540" y="1590" />
              <mxPoint x="450" y="1590" />
              <mxPoint x="450" y="1595" />
            </Array>
          </mxGeometry>
        </mxCell>
        <mxCell id="l8YqKFYvEB8Otpdug7OU-106" value="&lt;span style=&quot;font-size: 13px&quot;&gt;(RgMz) &amp;lt;- (RgMz) * 2&lt;/span&gt;&lt;br style=&quot;font-size: 13px&quot;&gt;&lt;span style=&quot;font-size: 13px&quot;&gt;(CT) &amp;lt;- (CT) -1&lt;/span&gt;" style="text;html=1;strokeColor=none;fillColor=none;align=center;verticalAlign=middle;whiteSpace=wrap;rounded=0;" vertex="1" parent="1">
          <mxGeometry x="453.75" y="1505" width="152.5" height="40" as="geometry" />
        </mxCell>
        <mxCell id="l8YqKFYvEB8Otpdug7OU-107" value="Не равны ли Mx и My 0, если да - завершение программы" style="text;html=1;strokeColor=none;fillColor=none;align=center;verticalAlign=middle;whiteSpace=wrap;rounded=0;" vertex="1" parent="1">
          <mxGeometry x="456.25" y="780" width="217.5" height="30" as="geometry" />
        </mxCell>
        <mxCell id="l8YqKFYvEB8Otpdug7OU-108" value="Нет" style="text;html=1;strokeColor=none;fillColor=none;align=center;verticalAlign=middle;whiteSpace=wrap;rounded=0;fontSize=13;" vertex="1" parent="1">
          <mxGeometry x="327.5" y="1505" width="40" height="20" as="geometry" />
        </mxCell>
        <mxCell id="l8YqKFYvEB8Otpdug7OU-109" style="edgeStyle=orthogonalEdgeStyle;rounded=0;orthogonalLoop=1;jettySize=auto;html=1;entryX=0.5;entryY=0;entryDx=0;entryDy=0;strokeWidth=2;fontSize=14;" edge="1" parent="1" source="l8YqKFYvEB8Otpdug7OU-111" target="l8YqKFYvEB8Otpdug7OU-113">
          <mxGeometry relative="1" as="geometry" />
        </mxCell>
        <mxCell id="l8YqKFYvEB8Otpdug7OU-110" style="edgeStyle=orthogonalEdgeStyle;rounded=0;orthogonalLoop=1;jettySize=auto;html=1;entryX=0.5;entryY=0;entryDx=0;entryDy=0;strokeWidth=2;fontSize=14;" edge="1" parent="1" source="l8YqKFYvEB8Otpdug7OU-111" target="l8YqKFYvEB8Otpdug7OU-117">
          <mxGeometry relative="1" as="geometry" />
        </mxCell>
        <mxCell id="l8YqKFYvEB8Otpdug7OU-111" value="" style="rhombus;whiteSpace=wrap;html=1;fontSize=14;" vertex="1" parent="1">
          <mxGeometry x="580.3199999999999" y="2070" width="140.93" height="60" as="geometry" />
        </mxCell>
        <mxCell id="l8YqKFYvEB8Otpdug7OU-112" value="(RgEz) = 0" style="text;html=1;strokeColor=none;fillColor=none;align=center;verticalAlign=middle;whiteSpace=wrap;rounded=0;fontSize=14;" vertex="1" parent="1">
          <mxGeometry x="609.0699999999999" y="2080" width="82.18" height="35" as="geometry" />
        </mxCell>
        <mxCell id="l8YqKFYvEB8Otpdug7OU-113" value="" style="rounded=0;whiteSpace=wrap;html=1;fontSize=14;" vertex="1" parent="1">
          <mxGeometry x="601.25" y="2180" width="120" height="40" as="geometry" />
        </mxCell>
        <mxCell id="l8YqKFYvEB8Otpdug7OU-114" style="edgeStyle=orthogonalEdgeStyle;rounded=0;orthogonalLoop=1;jettySize=auto;html=1;strokeWidth=2;fontSize=14;" edge="1" parent="1" source="l8YqKFYvEB8Otpdug7OU-115">
          <mxGeometry relative="1" as="geometry">
            <mxPoint x="270" y="1910" as="targetPoint" />
            <Array as="points">
              <mxPoint x="790" y="2200" />
              <mxPoint x="790" y="1910" />
            </Array>
          </mxGeometry>
        </mxCell>
        <mxCell id="l8YqKFYvEB8Otpdug7OU-115" value="B &amp;lt;- &amp;lt;1&amp;gt;" style="text;html=1;strokeColor=none;fillColor=none;align=center;verticalAlign=middle;whiteSpace=wrap;rounded=0;fontSize=14;" vertex="1" parent="1">
          <mxGeometry x="603.75" y="2190" width="110" height="20" as="geometry" />
        </mxCell>
        <mxCell id="l8YqKFYvEB8Otpdug7OU-116" style="edgeStyle=orthogonalEdgeStyle;rounded=0;orthogonalLoop=1;jettySize=auto;html=1;entryX=0.5;entryY=0;entryDx=0;entryDy=0;strokeWidth=2;fontSize=14;" edge="1" parent="1" source="l8YqKFYvEB8Otpdug7OU-117" target="l8YqKFYvEB8Otpdug7OU-121">
          <mxGeometry relative="1" as="geometry" />
        </mxCell>
        <mxCell id="l8YqKFYvEB8Otpdug7OU-117" value="" style="rhombus;whiteSpace=wrap;html=1;fontSize=14;" vertex="1" parent="1">
          <mxGeometry x="380" y="2120" width="140" height="60" as="geometry" />
        </mxCell>
        <mxCell id="l8YqKFYvEB8Otpdug7OU-118" style="edgeStyle=orthogonalEdgeStyle;rounded=0;orthogonalLoop=1;jettySize=auto;html=1;strokeWidth=2;fontSize=14;" edge="1" parent="1" source="l8YqKFYvEB8Otpdug7OU-119">
          <mxGeometry relative="1" as="geometry">
            <mxPoint x="360" y="1860" as="targetPoint" />
          </mxGeometry>
        </mxCell>
        <mxCell id="l8YqKFYvEB8Otpdug7OU-119" value="(RgEz[4]) ^ B = 1" style="text;html=1;strokeColor=none;fillColor=none;align=center;verticalAlign=middle;whiteSpace=wrap;rounded=0;fontSize=14;" vertex="1" parent="1">
          <mxGeometry x="396.25" y="2140" width="110" height="20" as="geometry" />
        </mxCell>
        <mxCell id="l8YqKFYvEB8Otpdug7OU-120" style="edgeStyle=orthogonalEdgeStyle;rounded=0;orthogonalLoop=1;jettySize=auto;html=1;strokeWidth=2;fontSize=14;entryX=0.979;entryY=0.619;entryDx=0;entryDy=0;entryPerimeter=0;" edge="1" parent="1" source="l8YqKFYvEB8Otpdug7OU-121" target="l8YqKFYvEB8Otpdug7OU-76">
          <mxGeometry relative="1" as="geometry">
            <mxPoint x="400" y="2420" as="targetPoint" />
            <Array as="points">
              <mxPoint x="414" y="2420" />
            </Array>
          </mxGeometry>
        </mxCell>
        <mxCell id="l8YqKFYvEB8Otpdug7OU-121" value="" style="rounded=0;whiteSpace=wrap;html=1;fontSize=14;" vertex="1" parent="1">
          <mxGeometry x="354" y="2220" width="120" height="40" as="geometry" />
        </mxCell>
        <mxCell id="l8YqKFYvEB8Otpdug7OU-122" value="(RgMz) &amp;lt;- &amp;lt;0&amp;gt;" style="text;html=1;strokeColor=none;fillColor=none;align=center;verticalAlign=middle;whiteSpace=wrap;rounded=0;fontSize=14;" vertex="1" parent="1">
          <mxGeometry x="359" y="2230" width="110" height="20" as="geometry" />
        </mxCell>
        <mxCell id="l8YqKFYvEB8Otpdug7OU-123" value="Да" style="text;html=1;strokeColor=none;fillColor=none;align=center;verticalAlign=middle;whiteSpace=wrap;rounded=0;fontSize=13;" vertex="1" parent="1">
          <mxGeometry x="660" y="2140" width="40" height="20" as="geometry" />
        </mxCell>
        <mxCell id="l8YqKFYvEB8Otpdug7OU-124" value="Нет" style="text;html=1;strokeColor=none;fillColor=none;align=center;verticalAlign=middle;whiteSpace=wrap;rounded=0;fontSize=13;" vertex="1" parent="1">
          <mxGeometry x="500" y="2070" width="40" height="20" as="geometry" />
        </mxCell>
        <mxCell id="l8YqKFYvEB8Otpdug7OU-125" value="Да" style="text;html=1;strokeColor=none;fillColor=none;align=center;verticalAlign=middle;whiteSpace=wrap;rounded=0;fontSize=13;" vertex="1" parent="1">
          <mxGeometry x="472.5" y="2180" width="40" height="20" as="geometry" />
        </mxCell>
        <mxCell id="l8YqKFYvEB8Otpdug7OU-126" value="Нет" style="text;html=1;strokeColor=none;fillColor=none;align=center;verticalAlign=middle;whiteSpace=wrap;rounded=0;fontSize=13;" vertex="1" parent="1">
          <mxGeometry x="363.75" y="2005" width="40" height="20" as="geometry" />
        </mxCell>
        <mxCell id="l8YqKFYvEB8Otpdug7OU-127" value="Для того чтобы разделить ситуацию когда происходит переполнение, и когда переход из положительного числа в отрицательное - мы узнаем, после денормалиации, равен ли Ez =0, если да - записываем в &lt;b&gt;B&lt;/b&gt; 1.&lt;br&gt;В противном случае, если не было зафиксировано, что Ez=0, и при этом знак Ez и &lt;b&gt;B&lt;/b&gt; отличаются - значит было переполнения" style="text;html=1;strokeColor=none;fillColor=none;align=center;verticalAlign=middle;whiteSpace=wrap;rounded=0;fontSize=14;" vertex="1" parent="1">
          <mxGeometry x="532.5" y="2230" width="277.5" height="200" as="geometry" />
        </mxCell>
      </root>
    </mxGraphModel>
  </diagram>
</mxfile>
